<mxfile host="app.diagrams.net" agent="Mozilla/5.0 (Macintosh; Intel Mac OS X 10_15_7) AppleWebKit/537.36 (KHTML, like Gecko) Chrome/135.0.0.0 Safari/537.36" version="26.2.13">
  <diagram name="Trang-1" id="HcSTBCP47rE03VFnDTu5">
    <mxGraphModel dx="674" dy="678" grid="1" gridSize="10" guides="1" tooltips="1" connect="1" arrows="1" fold="1" page="1" pageScale="1" pageWidth="827" pageHeight="1169" math="0" shadow="0">
      <root>
        <mxCell id="0" />
        <mxCell id="1" parent="0" />
        <mxCell id="p9wA5WOMyRCkbdjscX1R-1" value="Bắt đầu" style="ellipse;whiteSpace=wrap;html=1;" vertex="1" parent="1">
          <mxGeometry x="350" width="90" height="60" as="geometry" />
        </mxCell>
        <mxCell id="p9wA5WOMyRCkbdjscX1R-36" value="" style="edgeStyle=orthogonalEdgeStyle;rounded=0;orthogonalLoop=1;jettySize=auto;html=1;" edge="1" parent="1" source="p9wA5WOMyRCkbdjscX1R-21" target="p9wA5WOMyRCkbdjscX1R-31">
          <mxGeometry relative="1" as="geometry" />
        </mxCell>
        <mxCell id="p9wA5WOMyRCkbdjscX1R-21" value="End" style="ellipse;whiteSpace=wrap;html=1;" vertex="1" parent="1">
          <mxGeometry x="335" y="410" width="110" height="70" as="geometry" />
        </mxCell>
        <mxCell id="p9wA5WOMyRCkbdjscX1R-23" value="" style="endArrow=classic;html=1;rounded=0;entryX=0.5;entryY=0;entryDx=0;entryDy=0;" edge="1" parent="1">
          <mxGeometry width="50" height="50" relative="1" as="geometry">
            <mxPoint x="400" y="60" as="sourcePoint" />
            <mxPoint x="340" y="100" as="targetPoint" />
          </mxGeometry>
        </mxCell>
        <mxCell id="p9wA5WOMyRCkbdjscX1R-25" value="" style="endArrow=classic;html=1;rounded=0;entryX=0.5;entryY=0;entryDx=0;entryDy=0;" edge="1" parent="1">
          <mxGeometry width="50" height="50" relative="1" as="geometry">
            <mxPoint x="400" y="60" as="sourcePoint" />
            <mxPoint x="454" y="100" as="targetPoint" />
          </mxGeometry>
        </mxCell>
        <mxCell id="p9wA5WOMyRCkbdjscX1R-34" value="" style="edgeStyle=orthogonalEdgeStyle;rounded=0;orthogonalLoop=1;jettySize=auto;html=1;" edge="1" parent="1" source="p9wA5WOMyRCkbdjscX1R-26" target="p9wA5WOMyRCkbdjscX1R-30">
          <mxGeometry relative="1" as="geometry" />
        </mxCell>
        <mxCell id="p9wA5WOMyRCkbdjscX1R-26" value="b" style="shape=parallelogram;perimeter=parallelogramPerimeter;whiteSpace=wrap;html=1;fixedSize=1;" vertex="1" parent="1">
          <mxGeometry x="390" y="100" width="120" height="60" as="geometry" />
        </mxCell>
        <mxCell id="p9wA5WOMyRCkbdjscX1R-27" value="a" style="shape=parallelogram;perimeter=parallelogramPerimeter;whiteSpace=wrap;html=1;fixedSize=1;" vertex="1" parent="1">
          <mxGeometry x="270" y="100" width="120" height="60" as="geometry" />
        </mxCell>
        <mxCell id="p9wA5WOMyRCkbdjscX1R-32" value="" style="edgeStyle=orthogonalEdgeStyle;rounded=0;orthogonalLoop=1;jettySize=auto;html=1;" edge="1" parent="1" source="p9wA5WOMyRCkbdjscX1R-30" target="p9wA5WOMyRCkbdjscX1R-27">
          <mxGeometry relative="1" as="geometry" />
        </mxCell>
        <mxCell id="p9wA5WOMyRCkbdjscX1R-33" value="" style="edgeStyle=orthogonalEdgeStyle;rounded=0;orthogonalLoop=1;jettySize=auto;html=1;" edge="1" parent="1" source="p9wA5WOMyRCkbdjscX1R-30" target="p9wA5WOMyRCkbdjscX1R-27">
          <mxGeometry relative="1" as="geometry" />
        </mxCell>
        <mxCell id="p9wA5WOMyRCkbdjscX1R-30" value="sum = a + b" style="rounded=0;whiteSpace=wrap;html=1;" vertex="1" parent="1">
          <mxGeometry x="330" y="200" width="120" height="60" as="geometry" />
        </mxCell>
        <mxCell id="p9wA5WOMyRCkbdjscX1R-35" value="" style="edgeStyle=orthogonalEdgeStyle;rounded=0;orthogonalLoop=1;jettySize=auto;html=1;" edge="1" parent="1" source="p9wA5WOMyRCkbdjscX1R-31" target="p9wA5WOMyRCkbdjscX1R-30">
          <mxGeometry relative="1" as="geometry" />
        </mxCell>
        <mxCell id="p9wA5WOMyRCkbdjscX1R-31" value="sum" style="shape=parallelogram;perimeter=parallelogramPerimeter;whiteSpace=wrap;html=1;fixedSize=1;" vertex="1" parent="1">
          <mxGeometry x="330" y="310" width="120" height="60" as="geometry" />
        </mxCell>
      </root>
    </mxGraphModel>
  </diagram>
</mxfile>
